<svg xmlns="http://www.w3.org/2000/svg" viewBox="0 0 512 512" width="512" height="512">
  <defs>
    <radialGradient id="bg" cx="50%" cy="40%" r="80%">
      <stop offset="0%" stop-color="#3b2766"/>
      <stop offset="60%" stop-color="#1a0d2e"/>
      <stop offset="100%" stop-color="#0a0518"/>
    </radialGradient>
    <linearGradient id="cap" x1="0" y1="0" x2="0" y2="1">
      <stop offset="0%" stop-color="#6b3410"/>
      <stop offset="100%" stop-color="#3d1d08"/>
    </linearGradient>
    <linearGradient id="nut" x1="0" y1="0" x2="0" y2="1">
      <stop offset="0%" stop-color="#f5d36a"/>
      <stop offset="50%" stop-color="#d99a2b"/>
      <stop offset="100%" stop-color="#8b5a16"/>
    </linearGradient>
    <radialGradient id="shine" cx="35%" cy="40%" r="40%">
      <stop offset="0%" stop-color="#fff" stop-opacity="0.7"/>
      <stop offset="100%" stop-color="#fff" stop-opacity="0"/>
    </radialGradient>
  </defs>

  <!-- full bleed background; acorn fits within central 80% safe zone -->
  <rect width="512" height="512" fill="url(#bg)"/>

  <!-- acorn scaled to safe zone (264px) -->
  <g transform="translate(256,260) scale(0.66)">
    <ellipse cx="0" cy="40" rx="100" ry="120" fill="url(#nut)"/>
    <path d="M -110,-30 Q -110,-90 0,-100 Q 110,-90 110,-30 Q 110,10 0,15 Q -110,10 -110,-30 Z" fill="url(#cap)"/>
    <g stroke="#2a1408" stroke-width="2" opacity="0.6" fill="none">
      <path d="M -90,-50 Q -50,-30 -10,-50"/>
      <path d="M 10,-50 Q 50,-30 90,-50"/>
      <path d="M -90,-20 Q -50,0 -10,-20"/>
      <path d="M 10,-20 Q 50,0 90,-20"/>
    </g>
    <rect x="-7" y="-115" width="14" height="20" rx="3" fill="#3d1d08"/>
    <ellipse cx="-30" cy="20" rx="40" ry="50" fill="url(#shine)"/>
  </g>
</svg>
